<?xml version="1.0" encoding="utf-8"?>
<!-- Generator: Adobe Illustrator 28.0.0, SVG Export Plug-In . SVG Version: 6.00 Build 0)  -->
<svg version="1.1" id="Calque_1" xmlns="http://www.w3.org/2000/svg" xmlns:xlink="http://www.w3.org/1999/xlink" x="0px" y="0px"
	 viewBox="0 0 512 512" enable-background="new 0 0 512 512" xml:space="preserve">
<g>
	<path fill="#0006FF" d="M95.6,87.4c1.19-1.36,2.54-1.31,3.87-1.4c9.34-0.59,18.48,0.7,27.58,2.65c7.17,1.54,14.31,3.27,21.54,4.44
		c14.2,2.28,28.45,2.25,42.68,0.14c3.24-0.48,6.52-0.79,9.75-1.34c7.23-1.21,14.45-2.45,21.65-3.8c7.59-1.42,15.14-2.99,22.72-4.47
		c8.99-1.75,17.97-3.61,27-5.16c6.84-1.18,13.74-2.02,20.63-2.91c5.84-0.75,11.67-1.68,17.54-1.98
		c34.26-1.75,64.55,8.08,89.32,32.24c32.55,31.75,39.55,79.18,17.85,119c-2.76,5.06-6.27,9.71-9.45,14.55
		c-0.52,0.79-1.07,1.55-1.71,2.46c0.77,0.73,1.35,1.36,2,1.9c11.17,9.13,20.32,19.94,27.91,32.21
		c14.26,23.05,21.92,48.17,24.29,75.03c1.69,19.21,0.22,38.18-4.8,56.83c-0.88,3.26-1.92,6.48-3.03,9.67
		c-0.83,2.41-1.46,2.64-3.89,2.3c-31.39-4.44-59.43-16.86-84.78-35.62c-11.46-8.48-21.66-18.31-30.4-29.59
		c-7.58-9.77-13.51-20.42-16.85-32.41c-0.18-0.64-0.46-1.25-0.75-1.99c-2.02,0.25-3.27,1.64-4.63,2.77
		c-5.2,4.32-11.18,6.62-17.92,5.99c-3.5-0.32-7.11-1.14-10.34-2.52c-10.28-4.39-18.91-11.16-26.25-19.55
		c-9.32-10.66-15.94-22.93-21.15-36.02c-4.15-10.42-7.44-21.11-9.83-32.06c-1.15-5.27-1.76-10.66-2.62-15.99
		c-2.14-13.34-6.59-25.95-11.81-38.34c-3.61-8.58-8.45-16.45-13.39-24.28c-2.42-3.83-4.6-7.81-7.1-11.58
		c-4.98-7.52-11.03-14.15-17.58-20.31c-15.08-14.18-32.12-25.27-51.52-32.63c-6.15-2.33-12.45-4.12-18.93-5.33
		c-2.07-0.39-4.1-1.05-6.12-1.69C96.56,88.42,96.14,87.85,95.6,87.4z M429.48,379.46c0.29-1.33,0.53-2.16,0.64-3.01
		c1.26-9.72,1.26-19.46-0.12-29.16c-3.07-21.54-11.32-40.97-24.09-58.55c-8.4-11.57-18.3-21.65-29.75-30.19
		c-6.81-5.08-13.79-9.94-21.86-12.9c-0.54-0.2-1.08-0.44-1.57-0.74c-1.79-1.12-1.82-2.61,0.08-3.45c4.91-2.17,9.14-5.34,13.32-8.61
		c8.59-6.73,15.96-14.58,21.45-24.05c8.44-14.55,11.07-29.94,6.03-46.23c-3.32-10.75-9.53-19.74-17.59-27.5
		c-10.03-9.65-21.8-16.55-34.73-21.48c-26.62-10.13-54.06-12.07-82.07-7.83c-7.45,1.13-14.68,3.25-22,5
		c-15.04,3.61-30.29,5.96-45.81,6.22c-0.59,0.01-1.17,0.27-1.8,0.42c0.17,0.43,0.19,0.65,0.31,0.77c0.4,0.42,0.82,0.82,1.25,1.2
		c14.48,12.72,25.76,27.88,34.11,45.2c5.71,11.83,10.54,24.04,14.37,36.6c2.59,8.48,4.9,17.05,7.28,25.59
		c2.39,8.58,5.46,16.87,9.54,24.8c4.3,8.35,9.78,15.74,17.19,21.55c9.65,7.56,20.35,9.95,32.08,5.57c6.15-2.3,11.3-6.2,15.93-10.81
		c1.16-1.15,2.41-2.23,3.74-3.18c1.09-0.77,2.12-0.43,2.51,0.83c0.4,1.28,0.53,2.64,0.74,3.97c0.68,4.38,1.06,8.83,2.06,13.14
		c3.82,16.46,11.74,30.96,21.99,44.23c7.52,9.74,16.16,18.41,25.79,26.08c14.34,11.42,30.07,20.24,47.65,25.64
		C427.16,378.9,428.17,379.12,429.48,379.46z"/>
	<path fill="#0006FF" d="M73.35,231.14c-2.94-2.53-5.8-4.68-8.3-7.19c-6.51-6.54-10.28-14.61-12.6-23.43
		c-2.99-11.39-3.13-22.93-1.43-34.49c3.75-25.49,14.44-47.85,30.84-67.61c1.7-2.05,3.56-2.34,5.89-1.86
		c6.93,1.42,13.59,3.68,20.06,6.53c12.15,5.36,23.3,12.45,34.23,19.93c9.11,6.23,17.54,13.28,25.13,21.26
		c5.36,5.64,10.66,11.41,15.31,17.64c5.06,6.78,9.66,13.89,13.65,21.46c6.38,12.1,10.67,24.98,15.09,37.8
		c2.63,7.64,4.24,15.64,6.37,23.46c3.69,13.58,7.18,27.22,11.18,40.71c9.46,31.91,27.93,58.03,52.41,80.15
		c20.62,18.63,43.94,32.93,69.5,43.76c14.69,6.23,29.62,11.7,45.01,15.87c10.86,2.94,21.91,4.54,33.18,4.55
		c1.44,0,2.89,0.12,4.31,0.35c0.91,0.15,2.1,0.36,2.01,1.63c-0.08,1.16-1.23,1.03-2.05,1.15c-7.83,1.14-15.65,2.42-23.5,3.37
		c-30.07,3.62-60.27,4.43-90.49,3.29c-19.47-0.73-38.92-2.35-58.37-3.64c-25.46-1.68-50.68-5.31-75.83-9.43
		c-22.84-3.74-44.61-10.86-64.89-22.15c-14.36-8-27.28-17.85-38.18-30.23c-6.01-6.82-11.25-14.17-15.6-22.2
		c-6.41-11.82-10.76-24.34-13.28-37.49c-2.74-14.31-1.81-28.42,2.68-42.31c4.41-13.62,9.53-26.93,16.92-39.26
		C72.89,232.27,73.08,231.72,73.35,231.14z M309.97,415.76c-0.9-0.54-1.57-1.04-2.31-1.37c-8.87-3.88-17.2-8.77-25.32-13.96
		c-12.39-7.93-23.47-17.56-34.53-27.21c-8.44-7.37-15.63-15.8-21.54-25.23c-3.83-6.11-7.03-12.65-10.08-19.19
		c-4.78-10.24-8.72-20.85-11.25-31.89c-1.96-8.55-3.39-17.23-5.32-25.79c-3.55-15.74-7.75-31.29-14.88-45.88
		c-3.61-7.39-8.19-14.02-15.15-18.66c-7.25-4.83-14.72-6.12-22.4-0.82c-0.79,0.54-1.67,0.99-2.57,1.3
		c-1.38,0.48-2.28-0.16-2.35-1.62c-0.03-0.66,0.18-1.32,0.29-1.99c0.5-2.93,1.32-5.85,1.47-8.8c0.78-15.32-4.78-28.58-13.97-40.42
		c-8.06-10.39-18.33-18.15-30.17-23.84c-4.2-2.02-4.19-2.01-6.14,2.15c-5.1,10.85-8.3,22.23-9.32,34.18
		c-0.93,10.87-0.28,21.63,3.39,32.01c3.68,10.4,9.61,18.88,20.34,23.14c2.12,0.84,2.16,1.47,0.89,3.49
		c-2.41,3.84-4.92,7.63-7.12,11.58c-9.04,16.24-14.93,33.46-15.61,52.21c-0.62,17.07,3.35,32.93,12.86,47.25
		c6.42,9.66,14.57,17.71,23.67,24.83c16.98,13.3,36.13,22.54,56.26,29.93c14.08,5.17,28.66,8.51,43.3,11.6
		c17.94,3.79,35.88,7.57,54.05,10.16c9.93,1.42,19.88,2.77,29.82,4.12C307.45,417.22,308.76,417.6,309.97,415.76z"/>
</g>
</svg>
